<?xml version="1.0" standalone="no"?><!DOCTYPE svg PUBLIC "-//W3C//DTD SVG 1.1//EN" "http://www.w3.org/Graphics/SVG/1.1/DTD/svg11.dtd"><svg t="1628316705115" class="icon" viewBox="0 0 1024 1024" version="1.1" xmlns="http://www.w3.org/2000/svg" p-id="1441" width="300" height="300" xmlns:xlink="http://www.w3.org/1999/xlink"><defs><style type="text/css"></style></defs><path d="M962.577 1023.999H70.232V502.291c0-240.302 194.804-435.106 435.106-435.106h22.115c240.312 0 435.124 194.812 435.124 435.124v521.69z" fill="#FFD900" p-id="1442"></path><path d="M69.867 456.312H962.94v118.186H69.867z" p-id="1443"></path><path d="M69.867 499.927H962.94v30.956H69.867z" fill="#2B2B2D" p-id="1444"></path><path d="M268.521 515.405a247.883 247.883 0 1 0 495.767 0 247.883 247.883 0 1 0-495.767 0z" fill="#AFB0B4" p-id="1445"></path><path d="M336.129 513.358a175.871 175.871 0 1 0 351.742 0 175.871 175.871 0 1 0-351.742 0z" fill="#FDFDFF" p-id="1446"></path><path d="M214.51 785.51S434 972.765 731.767 882.207c0 0-1.535 121.255-251.72 87.488S208.37 816.208 214.51 785.51z" fill="#050505" p-id="1447"></path><path d="M214.51 785.51S434 972.765 731.767 882.207c0 0-1.535 121.255-251.72 87.488S208.37 816.208 214.51 785.51z" fill="#FC326C" p-id="1448"></path><path d="M278.465 894.933s104.372-3.07 110.512 49.116c0 0 93.628-66 153.488 24.558 0 0 52.185-39.906 101.302-7.674 0 0-65.935 22.129-175.428 6.267-54.586-7.908-121.487-22.906-189.874-72.267z" fill="#FDFEFF" p-id="1449"></path><path d="M439.361 514.43a75.976 75.976 0 1 0 151.952 0 75.976 75.976 0 1 0-151.952 0z" fill="#514217" p-id="1450"></path><path d="M470.633 514.43a44.704 44.704 0 1 0 89.408 0 44.704 44.704 0 1 0-89.408 0z" p-id="1451"></path><path d="M503.101 490.327a20.985 20.985 0 1 0 41.97 0 20.985 20.985 0 1 0-41.97 0z" fill="#FFFFFF" p-id="1452"></path><path d="M290.284 111.716s72.735-53.495 186.422-22.896c-47.323-6.986-124.485-5.735-186.02 55.905 0 0 63.505-60.135 176.662-46.487-48 0.77-118.97 14.608-168.918 80.163 0 0 71.016-88 219.094-66.126l2.239-9.583-0.293-0.066 4.127-7.794S397.22 28.317 290.284 111.716z m473.602 33.01C702.35 83.086 625.188 81.835 577.865 88.82c113.687-30.6 186.423 22.896 186.423 22.896-106.936-83.4-233.314-16.884-233.314-16.884l4.127 7.794-0.293 0.066 2.24 9.583c148.077-21.873 219.093 66.126 219.093 66.126-49.947-65.554-120.92-79.392-168.918-80.162 113.157-13.647 176.663 46.487 176.663 46.487z" fill="#050505" p-id="1453"></path></svg>