<?xml version="1.0" standalone="no"?><!DOCTYPE svg PUBLIC "-//W3C//DTD SVG 1.1//EN" "http://www.w3.org/Graphics/SVG/1.1/DTD/svg11.dtd"><svg t="1577029872016" class="icon" viewBox="0 0 1024 1024" version="1.1" xmlns="http://www.w3.org/2000/svg" p-id="5694" width="180" height="180" xmlns:xlink="http://www.w3.org/1999/xlink"><defs><style type="text/css"></style></defs><path d="M511.801704 3.172734v1020.827266" fill="" p-id="5695"></path><path d="M388.065066 3.172734h19.036406v1020.827266h-19.036406z" fill="#F2F2F2" p-id="5696"></path><path d="M407.101472 3.172734h19.036406v1020.827266h-19.036406z" fill="" p-id="5697"></path><path d="M426.137878 3.172734h19.036406v1020.827266h-19.036406z" fill="#F2F2F2" p-id="5698"></path><path d="M445.174284 3.172734H464.210689v1020.827266h-19.036405z" fill="" p-id="5699"></path><path d="M464.210689 3.172734h19.036406v1020.827266H464.210689z" fill="#F2F2F2" p-id="5700"></path><path d="M483.247095 3.172734h19.036406v1020.827266h-19.036406z" fill="" p-id="5701"></path><path d="M502.283501 3.172734h19.036406v1020.827266h-19.036406z" fill="#F2F2F2" p-id="5702"></path><path d="M521.319907 3.172734h19.036406v1020.827266h-19.036406z" fill="" p-id="5703"></path><path d="M540.356313 3.172734h19.036406v1020.827266h-19.036406z" fill="#F2F2F2" p-id="5704"></path><path d="M559.392719 3.172734h19.036406v1020.827266H559.392719z" fill="" p-id="5705"></path><path d="M578.429125 3.172734h19.036406v1020.827266h-19.036406zM616.501936 3.172734h19.036406v1020.827266h-19.036406z" fill="#F2F2F2" p-id="5706"></path><path d="M597.465531 3.172734h19.036405v1020.827266h-19.036405z" fill="" p-id="5707"></path><path d="M896.892332 123.736638H127.107668" fill="" p-id="5708"></path><path d="M127.107668 0h769.784664v19.036406H127.107668z" fill="#F2F2F2" p-id="5709"></path><path d="M127.107668 19.036406h769.784664v19.036406H127.107668z" fill="" p-id="5710"></path><path d="M127.107668 38.072812h769.784664v19.036406H127.107668z" fill="#F2F2F2" p-id="5711"></path><path d="M127.107668 57.109218h769.784664v19.036406H127.107668z" fill="" p-id="5712"></path><path d="M127.107668 76.145624h769.784664V95.182029H127.107668z" fill="#F2F2F2" p-id="5713"></path><path d="M127.107668 95.182029h769.784664v19.036406H127.107668z" fill="" p-id="5714"></path><path d="M127.107668 114.218435h769.784664v19.036406H127.107668z" fill="#F2F2F2" p-id="5715"></path><path d="M127.107668 133.254841h769.784664v19.036406H127.107668z" fill="" p-id="5716"></path><path d="M127.107668 152.291247h769.784664v19.036406H127.107668z" fill="#F2F2F2" p-id="5717"></path><path d="M127.107668 171.327653h769.784664V190.364059H127.107668z" fill="" p-id="5718"></path><path d="M127.107668 190.364059h769.784664v19.036406H127.107668zM127.107668 228.436871h769.784664v19.036406H127.107668z" fill="#F2F2F2" p-id="5719"></path><path d="M127.107668 209.400465h769.784664v19.036406H127.107668z" fill="" p-id="5720"></path></svg>